{
    "asset" : {
        "generator" : "Khronos glTF Blender I/O v1.8.6",
        "version" : "2.0"
    },
    "scene" : 0,
    "scenes" : [
        {
            "name" : "Scene",
            "nodes" : [
                0,
                1,
                2
            ]
        }
    ],
    "nodes" : [
        {
            "mesh" : 0,
            "name" : "Cube"
        },
        {
            "mesh" : 1,
            "name" : "Cube.001",
            "translation" : [
                0,
                -0.03969297930598259,
                0
            ]
        },
        {
            "mesh" : 2,
            "name" : "Cube.003",
            "translation" : [
                0,
                -0.03969297930598259,
                0
            ]
        }
    ],
    "materials" : [
        {
            "doubleSided" : true,
            "name" : "Material.005",
            "pbrMetallicRoughness" : {
                "baseColorFactor" : [
                    0.029265504330396652,
                    0.029265504330396652,
                    0.029265504330396652,
                    1
                ],
                "metallicFactor" : 0
            }
        },
        {
            "doubleSided" : true,
            "name" : "Drawer Plastic",
            "pbrMetallicRoughness" : {
                "baseColorFactor" : [
                    0.23875907063484192,
                    0.23875907063484192,
                    0.23875907063484192,
                    1
                ],
                "metallicFactor" : 0
            }
        }
    ],
    "meshes" : [
        {
            "name" : "Cube.002",
            "primitives" : [
                {
                    "attributes" : {
                        "POSITION" : 0,
                        "NORMAL" : 1,
                        "TEXCOORD_0" : 2
                    },
                    "indices" : 3,
                    "material" : 0
                }
            ]
        },
        {
            "name" : "Cube.003",
            "primitives" : [
                {
                    "attributes" : {
                        "POSITION" : 4,
                        "NORMAL" : 5,
                        "TEXCOORD_0" : 6
                    },
                    "indices" : 7,
                    "material" : 1
                }
            ]
        },
        {
            "name" : "Cube.005",
            "primitives" : [
                {
                    "attributes" : {
                        "POSITION" : 8,
                        "NORMAL" : 9,
                        "TEXCOORD_0" : 10
                    },
                    "indices" : 11,
                    "material" : 1
                }
            ]
        }
    ],
    "accessors" : [
        {
            "bufferView" : 0,
            "componentType" : 5126,
            "count" : 24,
            "max" : [
                -0.4146418273448944,
                0.7974249124526978,
                1.9140963554382324
            ],
            "min" : [
                -0.48307839035987854,
                -0.8931697607040405,
                -1.9140963554382324
            ],
            "type" : "VEC3"
        },
        {
            "bufferView" : 1,
            "componentType" : 5126,
            "count" : 24,
            "type" : "VEC3"
        },
        {
            "bufferView" : 2,
            "componentType" : 5126,
            "count" : 24,
            "type" : "VEC2"
        },
        {
            "bufferView" : 3,
            "componentType" : 5123,
            "count" : 36,
            "type" : "SCALAR"
        },
        {
            "bufferView" : 4,
            "componentType" : 5126,
            "count" : 174,
            "max" : [
                0.1994919329881668,
                -0.030921190977096558,
                0.5809484124183655
            ],
            "min" : [
                -0.36638760566711426,
                -0.5549872517585754,
                -0.5809484124183655
            ],
            "type" : "VEC3"
        },
        {
            "bufferView" : 5,
            "componentType" : 5126,
            "count" : 174,
            "type" : "VEC3"
        },
        {
            "bufferView" : 6,
            "componentType" : 5126,
            "count" : 174,
            "type" : "VEC2"
        },
        {
            "bufferView" : 7,
            "componentType" : 5123,
            "count" : 564,
            "type" : "SCALAR"
        },
        {
            "bufferView" : 8,
            "componentType" : 5126,
            "count" : 175,
            "max" : [
                0.1994919329881668,
                0.010311940684914589,
                0.5809484124183655
            ],
            "min" : [
                -0.36638760566711426,
                -0.02234763465821743,
                -0.5809484124183655
            ],
            "type" : "VEC3"
        },
        {
            "bufferView" : 9,
            "componentType" : 5126,
            "count" : 175,
            "type" : "VEC3"
        },
        {
            "bufferView" : 10,
            "componentType" : 5126,
            "count" : 175,
            "type" : "VEC2"
        },
        {
            "bufferView" : 11,
            "componentType" : 5123,
            "count" : 564,
            "type" : "SCALAR"
        }
    ],
    "bufferViews" : [
        {
            "buffer" : 0,
            "byteLength" : 288,
            "byteOffset" : 0
        },
        {
            "buffer" : 0,
            "byteLength" : 288,
            "byteOffset" : 288
        },
        {
            "buffer" : 0,
            "byteLength" : 192,
            "byteOffset" : 576
        },
        {
            "buffer" : 0,
            "byteLength" : 72,
            "byteOffset" : 768
        },
        {
            "buffer" : 0,
            "byteLength" : 2088,
            "byteOffset" : 840
        },
        {
            "buffer" : 0,
            "byteLength" : 2088,
            "byteOffset" : 2928
        },
        {
            "buffer" : 0,
            "byteLength" : 1392,
            "byteOffset" : 5016
        },
        {
            "buffer" : 0,
            "byteLength" : 1128,
            "byteOffset" : 6408
        },
        {
            "buffer" : 0,
            "byteLength" : 2100,
            "byteOffset" : 7536
        },
        {
            "buffer" : 0,
            "byteLength" : 2100,
            "byteOffset" : 9636
        },
        {
            "buffer" : 0,
            "byteLength" : 1400,
            "byteOffset" : 11736
        },
        {
            "buffer" : 0,
            "byteLength" : 1128,
            "byteOffset" : 13136
        }
    ],
    "buffers" : [
        {
            "byteLength" : 14264,
            "uri" : "data:application/octet-stream;base64,"
        }
    ]
}
