{
    "asset" : {
        "generator" : "Khronos glTF Blender I/O v1.8.6",
        "version" : "2.0"
    },
    "scene" : 0,
    "scenes" : [
        {
            "name" : "Scene",
            "nodes" : [
                0,
                1,
                2
            ]
        }
    ],
    "nodes" : [
        {
            "mesh" : 0,
            "name" : "Wooden Desk.001",
            "translation" : [
                0,
                0.0024434917140752077,
                0
            ]
        },
        {
            "mesh" : 1,
            "name" : "Plate.001"
        },
        {
            "mesh" : 2,
            "name" : "Plate Needle.001"
        }
    ],
    "materials" : [
        {
            "doubleSided" : true,
            "name" : "Record Player Wooden Desk.001",
            "pbrMetallicRoughness" : {
                "baseColorTexture" : {
                    "index" : 0
                },
                "metallicFactor" : 0,
                "roughnessFactor" : 0.586363673210144
            }
        },
        {
            "doubleSided" : true,
            "name" : "Record Player Plate",
            "pbrMetallicRoughness" : {
                "baseColorFactor" : [
                    0,
                    0,
                    0,
                    1
                ],
                "metallicFactor" : 0.6772727370262146,
                "roughnessFactor" : 0.5
            }
        },
        {
            "doubleSided" : true,
            "name" : "Record Player Plate Needle",
            "pbrMetallicRoughness" : {
                "roughnessFactor" : 0.24090906977653503
            }
        }
    ],
    "meshes" : [
        {
            "name" : "Cube.001",
            "primitives" : [
                {
                    "attributes" : {
                        "POSITION" : 0,
                        "NORMAL" : 1,
                        "TEXCOORD_0" : 2
                    },
                    "indices" : 3,
                    "material" : 0
                }
            ]
        },
        {
            "name" : "Circle.001",
            "primitives" : [
                {
                    "attributes" : {
                        "POSITION" : 4,
                        "NORMAL" : 5,
                        "TEXCOORD_0" : 6
                    },
                    "indices" : 7,
                    "material" : 1
                }
            ]
        },
        {
            "name" : "Cylinder.001",
            "primitives" : [
                {
                    "attributes" : {
                        "POSITION" : 8,
                        "NORMAL" : 9,
                        "TEXCOORD_0" : 10
                    },
                    "indices" : 11,
                    "material" : 2
                }
            ]
        }
    ],
    "textures" : [
        {
            "sampler" : 0,
            "source" : 0
        }
    ],
    "images" : [
        {
            "bufferView" : 4,
            "mimeType" : "image/png",
            "name" : "record-player-wooden-desk-texture"
        }
    ],
    "accessors" : [
        {
            "bufferView" : 0,
            "componentType" : 5126,
            "count" : 1696,
            "max" : [
                0.17391566932201385,
                -0.009584853425621986,
                0.17884933948516846
            ],
            "min" : [
                -0.17391566932201385,
                -0.033792272210121155,
                -0.25823378562927246
            ],
            "type" : "VEC3"
        },
        {
            "bufferView" : 1,
            "componentType" : 5126,
            "count" : 1696,
            "type" : "VEC3"
        },
        {
            "bufferView" : 2,
            "componentType" : 5126,
            "count" : 1696,
            "type" : "VEC2"
        },
        {
            "bufferView" : 3,
            "componentType" : 5123,
            "count" : 5700,
            "type" : "SCALAR"
        },
        {
            "bufferView" : 5,
            "componentType" : 5126,
            "count" : 512,
            "max" : [
                0.15094487369060516,
                -0.0024260208010673523,
                0.15094485878944397
            ],
            "min" : [
                -0.15094484388828278,
                -0.007426020689308643,
                -0.15094485878944397
            ],
            "type" : "VEC3"
        },
        {
            "bufferView" : 6,
            "componentType" : 5126,
            "count" : 512,
            "type" : "VEC3"
        },
        {
            "bufferView" : 7,
            "componentType" : 5126,
            "count" : 512,
            "type" : "VEC2"
        },
        {
            "bufferView" : 8,
            "componentType" : 5123,
            "count" : 1524,
            "type" : "SCALAR"
        },
        {
            "bufferView" : 9,
            "componentType" : 5126,
            "count" : 83,
            "max" : [
                0.0016256392700597644,
                0.006324986461549997,
                0.0016256363596767187
            ],
            "min" : [
                -0.001625600503757596,
                -0.002810034668073058,
                -0.0016256039962172508
            ],
            "type" : "VEC3"
        },
        {
            "bufferView" : 10,
            "componentType" : 5126,
            "count" : 83,
            "type" : "VEC3"
        },
        {
            "bufferView" : 11,
            "componentType" : 5126,
            "count" : 83,
            "type" : "VEC2"
        },
        {
            "bufferView" : 12,
            "componentType" : 5123,
            "count" : 186,
            "type" : "SCALAR"
        }
    ],
    "bufferViews" : [
        {
            "buffer" : 0,
            "byteLength" : 20352,
            "byteOffset" : 0
        },
        {
            "buffer" : 0,
            "byteLength" : 20352,
            "byteOffset" : 20352
        },
        {
            "buffer" : 0,
            "byteLength" : 13568,
            "byteOffset" : 40704
        },
        {
            "buffer" : 0,
            "byteLength" : 11400,
            "byteOffset" : 54272
        },
        {
            "buffer" : 0,
            "byteLength" : 1729222,
            "byteOffset" : 65672
        },
        {
            "buffer" : 0,
            "byteLength" : 6144,
            "byteOffset" : 1794896
        },
        {
            "buffer" : 0,
            "byteLength" : 6144,
            "byteOffset" : 1801040
        },
        {
            "buffer" : 0,
            "byteLength" : 4096,
            "byteOffset" : 1807184
        },
        {
            "buffer" : 0,
            "byteLength" : 3048,
            "byteOffset" : 1811280
        },
        {
            "buffer" : 0,
            "byteLength" : 996,
            "byteOffset" : 1814328
        },
        {
            "buffer" : 0,
            "byteLength" : 996,
            "byteOffset" : 1815324
        },
        {
            "buffer" : 0,
            "byteLength" : 664,
            "byteOffset" : 1816320
        },
        {
            "buffer" : 0,
            "byteLength" : 372,
            "byteOffset" : 1816984
        }
    ],
    "samplers" : [
        {
            "magFilter" : 9729,
            "minFilter" : 9987
        }
    ],
    "buffers" : [
        {
            "byteLength" : 1817356,
            "uri" : "data:application/octet-stream;base64,"
        }
    ]
}
